<svg enable-background="new 0 0 1407 1407" height="1407" viewBox="0 0 1407 1407" width="1407" xmlns="http://www.w3.org/2000/svg"><path d="m280.557 143.178c56.457-42.647 119.479-76.889 187.15-101.244l152.302 427.93c-23.902 8.686-46.173 20.835-66.087 36.06zm-277.367 618.474c-1.641-19.017-2.57-38.198-2.57-57.429 0-187.04 73.803-357.424 193.499-483.5l329.39 312.614c-41.965 44.581-68.001 104.764-68.001 170.886 0 6.539.275 13.342.984 20.111zm458.666-1.916-443.239 102.386c34.468 148.391 116.255 279.377 228.402 375.438l294.976-345.153c-39.33-34.019-68.163-80.187-80.139-132.671m106.402 152.346-246.943 381.269c32.327 21.099 66.795 39.63 102.628 55.349l180.589-416.942c-12.641-5.602-24.783-12.199-36.274-19.676m74.457 33.041c19.695 4.885 40.315 7.739 61.873 7.739 8.426 0 16.901-.501 25.277-1.208l47.812 451.339c-24.128 2.64-48.961 4.013-74.235 4.013-59.031 0-116.419-7.476-171.507-21.328zm119.478.921 107.771 440.795c37.753-9.344 74.292-21.55 109.418-36.545l-178.294-417.164c-12.414 5.445-25.544 9.624-38.895 12.914m72.377-30.228c38.951-24.116 70.794-58.366 91.634-99.146l404.34 203.902c-58.537 115.316-148.037 212.538-257.231 280.526zm106.625-135.69 431.259 138.059c9.843-30.293 17.61-61.17 23.244-93.051-103.338-18.293-348.864-61.17-446.296-78.263-1.86 11.491-4.65 22.48-8.207 33.255m11.215-57.659c.492-6.103.712-12.188.712-18.243 0-14.797-1.37-29.298-3.72-43.37l446.296-78.041c6.786 39.629 10.503 79.916 10.503 121.411 0 17.307-.651 34.62-2.075 51.991zm206.904-552.583-294.273 344.503c34.469 29.076 60.941 67.48 75.438 111.353l430.163-141.587c-40.81-123.28-114.828-231.548-211.328-314.269m-74.296-55.503-246.45 380.332c-17.072-11.055-35.621-19.896-55.036-26.765l146.448-429.304c55.032 18.951 107.062 44.514 155.038 75.737m-487.005-105.479 67.9 449.201c12.633-2.08 25.546-3.026 38.675-3.026 18.493 0 36.762 2.155 54.322 6.103l100.988-442.433c-50.33-11.49-102.631-17.816-156.456-17.816-35.886 0-71.014 2.805-105.429 7.971" fill="#195fad" opacity=".051"></path></svg>