<?xml version="1.0" encoding="utf-8"?>
<!-- Generator: Adobe Illustrator 16.0.4, SVG Export Plug-In . SVG Version: 6.00 Build 0)  -->
<!DOCTYPE svg PUBLIC "-//W3C//DTD SVG 1.1//EN" "http://www.w3.org/Graphics/SVG/1.1/DTD/svg11.dtd" [
	<!ENTITY ns_extend "http://ns.adobe.com/Extensibility/1.0/">
	<!ENTITY ns_ai "http://ns.adobe.com/AdobeIllustrator/10.0/">
	<!ENTITY ns_graphs "http://ns.adobe.com/Graphs/1.0/">
	<!ENTITY ns_vars "http://ns.adobe.com/Variables/1.0/">
	<!ENTITY ns_imrep "http://ns.adobe.com/ImageReplacement/1.0/">
	<!ENTITY ns_sfw "http://ns.adobe.com/SaveForWeb/1.0/">
	<!ENTITY ns_custom "http://ns.adobe.com/GenericCustomNamespace/1.0/">
	<!ENTITY ns_adobe_xpath "http://ns.adobe.com/XPath/1.0/">
]>
<svg version="1.1" id="Layer_1" xmlns:x="&ns_extend;" xmlns:i="&ns_ai;" xmlns:graph="&ns_graphs;"
	 xmlns="http://www.w3.org/2000/svg" xmlns:xlink="http://www.w3.org/1999/xlink" x="0px" y="0px" width="14.321px"
	 height="14.327px" viewBox="0.245 0.353 14.321 14.327" enable-background="new 0.245 0.353 14.321 14.327" xml:space="preserve">
<metadata>
	<sfw  xmlns="&ns_sfw;">
		<slices></slices>
		<sliceSourceBounds  width="14.321" height="14.327" y="389.32" x="298.245" bottomLeftOrigin="true"></sliceSourceBounds>
	</sfw>
</metadata>
<path fill="#195FAD" d="M3.098,1.803c0.575-0.435,1.217-0.784,1.907-1.032l1.551,4.36C6.313,5.22,6.086,5.344,5.883,5.499
	L3.098,1.803 M0.271,8.105C0.255,7.911,0.245,7.715,0.245,7.519c0-1.905,0.752-3.641,1.972-4.926l3.356,3.185
	C5.146,6.233,4.88,6.846,4.88,7.519c0,0.067,0.003,0.136,0.01,0.205L0.271,8.105z M4.945,8.085L0.429,9.129
	c0.351,1.512,1.184,2.846,2.327,3.825l3.006-3.517C5.361,9.09,5.067,8.62,4.945,8.085 M6.029,9.639l-2.516,3.883
	c0.329,0.215,0.681,0.404,1.046,0.564l1.84-4.248C6.27,9.781,6.146,9.713,6.029,9.639 M6.788,9.975
	c0.201,0.049,0.411,0.078,0.63,0.078c0.086,0,0.173-0.005,0.258-0.012l0.487,4.6c-0.246,0.026-0.499,0.039-0.756,0.039
	c-0.602,0-1.187-0.076-1.748-0.217L6.788,9.975z M8.005,9.982l1.099,4.492c0.385-0.095,0.756-0.22,1.114-0.371L8.402,9.852
	C8.275,9.907,8.141,9.95,8.005,9.982 M8.743,9.676C9.141,9.43,9.464,9.081,9.676,8.665l4.12,2.078
	c-0.596,1.175-1.508,2.166-2.621,2.858L8.743,9.676z M9.829,8.293L14.223,9.7c0.102-0.31,0.18-0.623,0.237-0.948
	c-1.053-0.188-3.554-0.624-4.547-0.798C9.895,8.07,9.865,8.184,9.829,8.293 M9.943,7.705c0.006-0.062,0.008-0.124,0.008-0.186
	c0-0.15-0.014-0.298-0.038-0.442l4.547-0.795c0.069,0.404,0.106,0.815,0.106,1.237c0,0.177-0.006,0.353-0.021,0.53L9.943,7.705z
	 M12.052,2.075l-2.999,3.51c0.352,0.296,0.621,0.688,0.77,1.135l4.383-1.443C13.789,4.021,13.035,2.918,12.052,2.075 M11.295,1.509
	L8.783,5.385C8.609,5.272,8.421,5.182,8.223,5.112l1.492-4.374C10.275,0.931,10.807,1.191,11.295,1.509 M6.332,0.435l0.692,4.577
	c0.129-0.021,0.261-0.031,0.394-0.031c0.189,0,0.375,0.022,0.554,0.062l1.029-4.508C8.488,0.418,7.955,0.353,7.407,0.353
	C7.041,0.353,6.683,0.382,6.332,0.435"/>
</svg>
